<svg width="280" height="186" viewBox="0 0 280 186" fill="none" xmlns="http://www.w3.org/2000/svg">
<path d="M144.522 97.6885C173.65 106.298 199.871 102.364 220.715 89.8317C241.527 77.3192 257.012 56.2136 264.67 30.3803C236.954 24.0759 209.029 25.9165 186.99 36.8027C164.938 47.6952 148.744 67.6578 144.522 97.6885Z" fill="#A1E2AF" stroke="black"/>
<path d="M143.981 109.411C166.357 102.822 186.491 105.856 202.499 115.48C218.474 125.085 230.374 141.276 236.279 161.102C214.983 165.923 193.544 164.494 176.624 156.137C159.691 147.773 147.25 132.456 143.981 109.411Z" fill="#B0E5FF" stroke="black"/>
<path d="M135.478 97.6885C106.35 106.298 80.1294 102.364 59.2854 89.8317C38.4739 77.3192 22.9883 56.2136 15.3305 30.3803C43.0469 24.0759 70.9713 25.9165 93.0104 36.8027C115.062 47.6952 131.257 67.6578 135.478 97.6885Z" fill="#A1E2AF" stroke="black"/>
<path d="M135.846 109.411C113.471 102.822 93.3365 105.856 77.3288 115.48C61.3535 125.085 49.4533 141.276 43.5481 161.102C64.8448 165.923 86.2836 164.494 103.204 156.137C120.136 147.773 132.578 132.456 135.846 109.411Z" fill="#B0E5FF" stroke="black"/>
<path d="M143.772 98.1484C172.613 103.085 195.814 94.1912 213.244 76.3145C230.666 58.4463 242.343 31.5777 248.054 0.507812C221.62 0.276927 195.141 5.99623 175.484 21.043C155.776 36.1283 142.856 60.6418 143.772 98.1484Z" fill="#299B62" stroke="black"/>
<path d="M143.761 109.539C166.545 105.726 184.87 112.652 198.642 126.555C212.402 140.446 221.639 161.329 226.171 185.493C205.277 185.654 184.371 181.191 168.85 169.497C153.28 157.766 143.06 138.71 143.761 109.539Z" fill="#52C2F8" stroke="black"/>
<path d="M136.709 98.1465C107.315 103.086 83.6683 94.1908 65.9067 76.3115C48.156 58.4433 36.2594 31.5755 30.4408 0.507812C57.3792 0.275519 84.3658 5.99465 104.399 21.0449C124.48 36.1314 137.642 60.6445 136.709 98.1465Z" fill="#299B62" stroke="black"/>
<path d="M136.722 109.537C114.494 105.728 96.6144 112.651 83.1742 126.55C69.7413 140.441 60.7225 161.326 56.2983 185.493C76.6873 185.652 97.0861 181.19 112.232 169.501C127.429 157.772 137.407 138.713 136.722 109.537Z" fill="#52C2F8" stroke="black"/>
<path d="M141.236 34.5C145.352 34.5001 148.693 37.8554 148.693 42C148.693 46.1446 145.352 49.4999 141.236 49.5C137.12 49.5 133.779 46.1447 133.779 42C133.779 37.8553 137.12 34.5 141.236 34.5Z" fill="#FFD200" stroke="black"/>
</svg>
